<svg height="5275" legacy-metrics="false" node-id="1" sillyvg="true" template-height="5275" template-width="6121" version="1.1" viewBox="0 0 6121 5275" width="6121" xmlns="http://www.w3.org/2000/svg" xmlns:xlink="http://www.w3.org/1999/xlink"><defs node-id="106"></defs><g node-id="305"><path d="M 4777.44 1045.43 C 5275.30 1621.76 5660.00 2231.55 5697.26 2877.35 C 5733.26 3523.16 5420.67 4206.27 4922.81 4662.96 C 4426.24 5119.66 3743.13 5349.96 3157.81 5253.45 C 2573.75 5155.68 2084.90 4731.14 1464.81 4274.45 C 846.00 3817.76 94.72 3328.90 117.87 2864.49 C 139.74 2398.79 936.06 1956.24 1556.14 1378.62 C 2176.21 802.29 2618.76 92.16 3144.92 8.54 C 3671.08 -75.08 4280.87 469.09 4777.44 1045.43 Z" fill="#f7f7f7" fill-rule="nonzero" group-id="1" node-id="110" stroke="none" target-height="5275.1475" target-width="5582.6606" target-x="117.40497" target-y="-0.0020570457"></path><path d="M 659.78 2052.34 L 1012.19 1671.57 L 1364.60 1290.80 L 1518.15 1786.38 L 1671.71 2282.00 L 1165.71 2167.19 Z" fill="none" group-id="1" node-id="112" stroke="#b2c3fb" stroke-linecap="round" stroke-width="10" target-height="991.19995" target-width="1011.92993" target-x="659.78" target-y="1290.8"></path><path d="M 5237.57 1238.58 L 5040.39 1956.63 L 5688.69 1831.00 Z" fill="none" group-id="1" node-id="114" stroke="#eaf0ff" stroke-linecap="round" stroke-width="10" target-height="718.05005" target-width="648.2998" target-x="5040.39" target-y="1238.58"></path><path d="M 1145.14 1297.46 L 2795.69 1297.46 L 2795.69 3024.25 L 1145.14 3024.25 Z" fill="#d7e0ff" fill-rule="nonzero" group-id="1" node-id="116" stroke="none" target-height="1726.79" target-width="1650.5499" target-x="1145.14" target-y="1297.46"></path><g node-id="306"><path d="M 1747.26 1099.76 L 4958.67 1099.76 L 4958.67 3414.13 L 1747.26 3414.13 Z" fill="#eaf0ff" fill-opacity="0.67" fill-rule="nonzero" group-id="1,2" node-id="120" stroke-linecap="butt" stroke-opacity="0.67" stroke-width="1" target-height="2314.3699" target-width="3211.41" target-x="1747.26" target-y="1099.76"></path></g><path d="M 3757.75 1705.78 C 3757.75 1477.96 3942.44 1293.28 4170.25 1293.28 C 4398.06 1293.28 4582.76 1477.96 4582.76 1705.78 C 4582.76 1933.60 4398.07 2118.28 4170.25 2118.28 C 3942.43 2118.28 3757.75 1933.60 3757.75 1705.78 Z" fill="#d7e0ff" fill-rule="nonzero" group-id="1" node-id="123" stroke="none" target-height="825" target-width="825.00977" target-x="3757.75" target-y="1293.28"></path><path d="M 3033.84 3742.32 C 3033.84 3509.73 3222.40 3321.17 3454.99 3321.17 C 3687.58 3321.17 3876.13 3509.73 3876.13 3742.32 C 3876.13 3974.91 3687.58 4163.46 3455.00 4163.46 C 3222.42 4163.46 3033.84 3974.91 3033.84 3742.32 Z" fill="none" group-id="1" node-id="125" stroke="#eaf0ff" stroke-linecap="round" stroke-width="10" target-height="842.29004" target-width="842.2898" target-x="3033.84" target-y="3321.17"></path><path d="M 4332.74 913.82 L 4332.74 1233.07 L 4334.74 1233.07 L 4334.74 1573.88 L 4096.62 1319.28 L 3411.93 1319.28 L 3411.93 913.82 Z" fill="#ffffff" fill-rule="nonzero" group-id="1" node-id="127" stroke="none" target-height="660.06" target-width="922.8103" target-x="3411.93" target-y="913.82"></path><path d="M 2248.45 1459.45 L 2248.45 1778.70 L 2246.45 1778.70 L 2246.45 2119.51 L 2484.58 1864.92 L 3169.29 1864.92 L 3169.29 1459.45 Z" fill="#ffffff" fill-rule="nonzero" group-id="1" node-id="129" stroke="none" target-height="660.06006" target-width="922.8401" target-x="2246.45" target-y="1459.45"></path><path d="M 4773.45 2273.13 C 4773.45 2501.46 4872.69 2542.86 4872.69 2584.27 C 4872.69 2625.68 4827.69 2852.78 4814.85 2882.62 C 4848.34 2929.50 5084.58 2953.86 5129.64 2941.68 C 5133.29 2897.23 5189.92 2608.01 5202.71 2588.53 C 5215.50 2569.05 5358.58 2454.53 5358.58 2359.59 C 5358.58 2147.09 5344.58 1864.59 5203.32 1864.59 C 5031.61 1864.57 4773.45 1948.00 4773.45 2273.13 Z" fill="#ffffff" fill-rule="nonzero" group-id="1" node-id="131" stroke="none" target-height="1080.1434" target-width="585.1299" target-x="4773.45" target-y="1864.59"></path><path d="M 5486.22 2952.49 C 5375.76 2955.23 5137.09 2998.02 5137.09 2998.02 C 5135.72 3114.62 5167.51 4350.49 5172.31 4536.41 L 5853.93 4536.41 L 6095.40 3134.14 C 6095.40 3085.96 6076.27 3039.76 6042.20 3005.69 C 6008.13 2971.62 5961.93 2952.49 5913.75 2952.49 C 5913.75 2952.49 5620.38 2956.74 5506.47 2952.49 C 5500.35 2952.29 5493.58 2952.30 5486.22 2952.49 Z" fill="#3c3744" fill-rule="nonzero" group-id="1" node-id="133" stroke="none" target-height="1584.0659" target-width="958.31006" target-x="5137.09" target-y="2952.3442"></path><path d="M 1903.00 4002.43 C 1941.87 3981.00 2317.52 3703.00 2338.06 3677.00 C 2358.60 3651.00 2432.33 3502.45 2438.53 3492.76 C 2444.73 3483.07 2484.17 3464.95 2489.10 3469.13 C 2519.36 3494.82 2470.86 3582.28 2465.10 3595.65 C 2493.27 3569.94 2671.49 3430.59 2693.33 3437.44 C 2850.33 3486.73 2791.58 3696.25 2692.91 3747.30 C 2665.91 3761.30 2518.08 3817.72 2503.91 3830.08 C 2489.74 3842.44 1867.91 4360.16 1853.98 4370.08 C 1846.21 4334.39 1864.06 4023.83 1903.00 4002.43 Z" fill="#ffffff" fill-rule="nonzero" group-id="1" node-id="135" stroke="none" target-height="932.86816" target-width="938.0266" target-x="1852.2087" target-y="3437.212"></path><path d="M 4154.11 3276.08 C 4127.35 3315.69 4059.67 3414.51 4032.90 3453.08 C 3744.99 3074.27 3446.90 2854.91 3368.65 2481.08 C 3292.89 2432.87 3297.24 2604.92 3354.15 2733.72 C 3265.30 2790.56 3181.15 2847.57 3207.00 2889.72 C 3306.00 3050.89 3335.79 3000.18 3372.77 3003.50 C 3409.75 3006.82 3706.00 3614.10 3791.35 3709.62 C 3854.25 3780.03 3903.12 3862.35 4097.55 3946.00 C 4118.45 3768.06 4249.48 3346.73 4276.23 3314.75 C 4252.20 3297.55 4180.87 3236.48 4154.11 3276.08 Z" fill="#ffffff" fill-rule="nonzero" group-id="1" node-id="137" stroke="none" target-height="1473.1934" target-width="1073.9553" target-x="3202.2747" target-y="2472.8066"></path><path d="M 4249.67 3357.60 C 4160.52 3289.60 4100.25 3236.08 4098.67 3210.95 C 4094.90 3151.52 4451.10 2645.07 4693.47 2805.68 C 4796.30 2880.40 4426.00 3489.12 4249.67 3357.60 Z" fill="#46dbc9" fill-rule="nonzero" group-id="1" node-id="139" stroke="none" target-height="601.7615" target-width="612.4878" target-x="4098.67" target-y="2774.3718"></path><path d="M 4445.43 2782.10 C 4523.53 2743.36 4603.66 2733.64 4674.16 2780.36" fill="none" group-id="1" node-id="141" stroke="#1b3c87" stroke-linecap="round" stroke-width="25" target-height="33.01245" target-width="228.72998" target-x="4445.43" target-y="2749.0876"></path><path d="M 4230.38 3332.28 C 4139.90 3266.10 4080.96 3210.76 4079.38 3185.63 C 4077.75 3159.93 4143.38 3050.63 4238.06 2947.90" fill="none" group-id="1" node-id="143" stroke="#1b3c87" stroke-linecap="round" stroke-width="25" target-height="384.38013" target-width="158.68018" target-x="4079.38" target-y="2947.9"></path><path d="M 4919.22 2765.74 C 4206.43 2772.25 4064.22 3996.32 4031.22 4536.41 L 5380.62 4536.41 C 5550.89 4006.60 5676.78 2876.25 5031.18 2774.24 C 4994.16 2768.33 4956.71 2765.49 4919.22 2765.74 Z" fill="#46dbc9" fill-rule="nonzero" group-id="1" node-id="145" stroke="none" target-height="1770.6702" target-width="1486.6389" target-x="4031.22" target-y="2765.74"></path><path d="M 219.90 2916.42 C 171.72 2916.42 125.52 2935.56 91.45 2969.63 C 57.38 3003.70 38.25 3049.90 38.25 3098.08 C 38.25 3098.08 168.92 4156.08 216.56 4541.74 L 1198.75 4541.74 C 1198.66 4479.52 1196.75 3167.21 1186.69 2916.42 Z" fill="#3c3744" fill-rule="nonzero" group-id="1" node-id="147" stroke="none" target-height="1625.3203" target-width="1160.5" target-x="38.25" target-y="2916.42"></path><path d="M 1435.34 2873.00 C 781.83 2873.00 652.69 4012.83 671.71 4541.72 L 1869.50 4541.72 C 1976.13 4018.00 1993.82 2873.00 1435.34 2873.00 Z" fill="#46dbc9" fill-rule="nonzero" group-id="1" node-id="149" stroke="none" target-height="1668.7202" target-width="1258.5868" target-x="669.96814" target-y="2873"></path><path d="M 1882.44 3703.12 C 1898.63 4012.12 1865.82 4333.85 1819.56 4539.49" fill="none" group-id="1" node-id="151" stroke="#1b3c87" stroke-linecap="round" stroke-width="25" target-height="836.3701" target-width="67.03955" target-x="1819.56" target-y="3703.12"></path><path d="M 1558.61 2872.88 C 1674.96 2934.80 1754.24 3064.12 1805.67 3227.41" fill="none" group-id="1" node-id="153" stroke="#1b3c87" stroke-linecap="round" stroke-width="25" target-height="354.53003" target-width="247.06006" target-x="1558.61" target-y="2872.88"></path><path d="M 1037.00 2982.80 C 1088.66 2931.80 1146.25 2891.23 1210.33 2864.01" fill="none" group-id="1" node-id="155" stroke="#1b3c87" stroke-linecap="round" stroke-width="25" target-height="118.79004" target-width="173.32996" target-x="1037" target-y="2864.01"></path><path d="M 1890.38 3969.79 C 1934.28 3946.68 2281.79 3689.79 2314.09 3655.70 C 2346.39 3621.61 2400.09 3481.90 2423.58 3461.23 C 2447.07 3440.56 2462.71 3429.23 2476.69 3444.64 C 2490.67 3460.05 2466.12 3537.36 2435.69 3577.93 C 2493.05 3518.39 2628.00 3423.93 2675.69 3407.37" fill="none" group-id="1" node-id="157" stroke="#1b3c87" stroke-linecap="round" stroke-width="25" target-height="562.4199" target-width="785.30994" target-x="1890.38" target-y="3407.37"></path><path d="M 2109.24 4119.72 C 1986.83 4225.19 1876.06 4321.35 1856.58 4338.80" fill="none" group-id="1" node-id="159" stroke="#1b3c87" stroke-linecap="round" stroke-width="25" target-height="219.07959" target-width="252.66003" target-x="1856.58" target-y="4119.72"></path><path d="M 2677.62 3712.56 C 2624.10 3739.83 2518.46 3779.62 2469.62 3814.48 C 2455.68 3824.43 2403.37 3868.16 2334.71 3926.48" fill="none" group-id="1" node-id="161" stroke="#1b3c87" stroke-linecap="round" stroke-width="25" target-height="213.91992" target-width="342.91016" target-x="2334.71" target-y="3712.56"></path><path d="M 2511.29 3589.00 C 2527.95 3575.20 2579.59 3538.30 2631.05 3505.00 C 2678.84 3474.00 2726.48 3446.18 2745.78 3442.79" fill="none" group-id="1" node-id="163" stroke="#1b3c87" stroke-linecap="round" stroke-width="25" target-height="146.20996" target-width="234.48999" target-x="2511.29" target-y="3442.79"></path><path d="M 2552.78 3637.22 C 2569.44 3623.43 2621.08 3586.52 2672.54 3553.22 C 2720.33 3522.27 2767.97 3494.41 2787.27 3491.02" fill="none" group-id="1" node-id="165" stroke="#1b3c87" stroke-linecap="round" stroke-width="25" target-height="146.19995" target-width="234.48999" target-x="2552.78" target-y="3491.02"></path><path d="M 2572.77 3702.45 C 2587.57 3690.01 2633.42 3656.73 2679.10 3626.68 C 2721.54 3598.77 2763.83 3573.68 2780.97 3570.59" fill="none" group-id="1" node-id="167" stroke="#1b3c87" stroke-linecap="round" stroke-width="25" target-height="131.85986" target-width="208.19995" target-x="2572.77" target-y="3570.59"></path><path d="M 5202.93 2584.88 C 5189.93 2621.98 5131.38 2896.44 5127.05 2939.73 C 5072.05 2959.52 4845.78 2926.66 4817.33 2883.37 C 4845.16 2801.74 4874.74 2639.78 4872.26 2571.75" fill="#ffffff" fill-rule="nonzero" group-id="1" node-id="169" stroke="none" target-height="373.87402" target-width="385.6001" target-x="4817.33" target-y="2571.75"></path><path d="M 4800.32 2858.73 C 4828.15 2777.10 4857.73 2615.14 4855.25 2547.12" fill="none" group-id="1" node-id="171" stroke="#1b3c87" stroke-linecap="round" stroke-width="25" target-height="311.60986" target-width="55.07373" target-x="4800.32" target-y="2547.12"></path><path d="M 5185.92 2560.24 C 5172.92 2597.35 5114.37 2871.80 5110.04 2915.09 C 5083.31 2924.70 5016.22 2921.90 4951.04 2911.51" fill="none" group-id="1" node-id="173" stroke="#1b3c87" stroke-linecap="round" stroke-width="25" target-height="360.7339" target-width="234.87988" target-x="4951.04" target-y="2560.24"></path><path d="M 4779.80 2107.48 C 4797.27 2055.29 4823.21 2004.26 4849.71 1965.71" fill="none" group-id="1" node-id="175" stroke="#1b3c87" stroke-linecap="round" stroke-width="25" target-height="141.77002" target-width="69.91016" target-x="4779.8" target-y="1965.71"></path><path d="M 5064.40 2613.49 C 5034.58 2619.49 5004.33 2619.70 4974.55 2613.33 C 4835.14 2583.52 4746.39 2428.08 4754.28 2247.02" fill="none" group-id="1" node-id="177" stroke="#1b3c87" stroke-linecap="round" stroke-width="25" target-height="371.02856" target-width="310.55615" target-x="4753.8438" target-y="2247.02"></path><path d="M 5139.37 2779.77 C 5638.10 3019.77 5509.92 4065.66 5347.64 4539.07" fill="none" group-id="1" node-id="179" stroke="#1b3c87" stroke-linecap="round" stroke-width="25" target-height="1759.2998" target-width="352.94043" target-x="5139.37" target-y="2779.77"></path><path d="M 4124.52 3695.35 C 4233.81 3239.00 4439.40 2795.13 4826.00 2735.65" fill="none" group-id="1" node-id="181" stroke="#1b3c87" stroke-linecap="round" stroke-width="25" target-height="959.7002" target-width="701.48" target-x="4124.52" target-y="2735.65"></path><path d="M 4007.74 4539.56 C 4013.81 4430.77 4025.00 4288.44 4045.58 4131.31" fill="none" group-id="1" node-id="183" stroke="#1b3c87" stroke-linecap="round" stroke-width="25" target-height="408.25" target-width="37.840088" target-x="4007.74" target-y="4131.31"></path><path d="M 5286.48 4075.46 C 5295.48 4208.46 5305.27 4331.28 5312.80 4367.94 C 5273.02 4416.31 5180.53 4539.16 5180.53 4539.16" fill="none" group-id="1" node-id="185" stroke="#1b3c87" stroke-linecap="round" stroke-width="25" target-height="463.7002" target-width="132.27002" target-x="5180.53" target-y="4075.46"></path><path d="M 5261.48 3669.45 C 5262.62 3686.12 5265.94 3744.58 5270.48 3821.32" fill="none" group-id="1" node-id="187" stroke="#1b3c87" stroke-linecap="round" stroke-width="25" target-height="151.87012" target-width="9" target-x="5261.48" target-y="3669.45"></path><path d="M 4129.17 3252.46 C 4115.83 3271.98 4010.31 3428.78 4010.31 3428.78 C 4010.31 3428.78 3538.31 2870.27 3506.31 2826.49 C 3410.62 2695.75 3365.00 2536.08 3359.75 2501.00 C 3354.75 2467.86 3338.75 2428.74 3311.02 2447.08 C 3267.24 2480.08 3295.86 2648.85 3329.47 2706.52" fill="none" group-id="1" node-id="189" stroke="#1b3c87" stroke-linecap="round" stroke-width="25" target-height="986.37524" target-width="840.4226" target-x="3288.7473" target-y="2442.4048"></path><path d="M 3274.76 2725.82 C 3275.90 2754.92 3302.65 2844.37 3345.76 2884.96" fill="none" group-id="1" node-id="191" stroke="#1b3c87" stroke-linecap="round" stroke-width="25" target-height="159.1399" target-width="71" target-x="3274.76" target-y="2725.82"></path><path d="M 3223.49 2777.55 C 3227.49 2806.39 3262.95 2892.77 3309.89 2928.90" fill="none" group-id="1" node-id="193" stroke="#1b3c87" stroke-linecap="round" stroke-width="25" target-height="151.34985" target-width="86.3999" target-x="3223.49" target-y="2777.55"></path><path d="M 3172.63 2830.51 C 3178.37 2859.06 3218.96 2943.14 3267.99 2976.38" fill="none" group-id="1" node-id="195" stroke="#1b3c87" stroke-linecap="round" stroke-width="25" target-height="145.86987" target-width="95.36011" target-x="3172.63" target-y="2830.51"></path><path d="M 3652.21 3512.68 C 3554.47 3339.13 3471.53 3145.74 3370.00 3004.20" fill="none" group-id="1" node-id="197" stroke="#1b3c87" stroke-linecap="round" stroke-width="25" target-height="508.47998" target-width="282.20996" target-x="3370" target-y="3004.2"></path><path d="M 4077.63 3919.10 C 3987.27 3897.35 3911.28 3848.10 3844.78 3781.69" fill="none" group-id="1" node-id="199" stroke="#1b3c87" stroke-linecap="round" stroke-width="25" target-height="137.41016" target-width="232.84985" target-x="3844.78" target-y="3781.69"></path><path d="M 4832.51 2142.63 C 4839.70 2108.50 4865.51 2085.04 4890.18 2090.23 C 4914.85 2095.42 4929.01 2127.29 4921.83 2161.43" fill="none" group-id="1" node-id="201" stroke="#1b3c87" stroke-linecap="round" stroke-width="25" target-height="71.91528" target-width="91.1543" target-x="4832.51" target-y="2089.5146"></path><path d="M 5068.75 2197.44 C 5075.93 2163.31 5101.75 2139.85 5126.42 2145.04 C 5151.09 2150.23 5165.25 2182.10 5158.07 2216.24" fill="none" group-id="1" node-id="203" stroke="#1b3c87" stroke-linecap="round" stroke-width="25" target-height="71.91528" target-width="91.1543" target-x="5068.75" target-y="2144.3247"></path><path d="M 4964.19 2212.23 C 4949.54 2232.49 4911.19 2277.69 4893.12 2286.42" fill="none" group-id="1" node-id="205" stroke="#1b3c87" stroke-linecap="round" stroke-width="25" target-height="74.18994" target-width="71.069824" target-x="4893.12" target-y="2212.23"></path><path d="M 4974.19 2356.00 C 4995.19 2360.23 5040.91 2363.21 5087.19 2354.46 C 5096.73 2388.37 5087.19 2462.29 5000.95 2474.65" fill="none" group-id="1" node-id="207" stroke="#1b3c87" stroke-linecap="round" stroke-width="25" target-height="120.18994" target-width="115.98242" target-x="4974.19" target-y="2354.46"></path><path d="M 611.32 2888.11 L 1161.00 2888.11" fill="none" group-id="1" node-id="209" stroke="#1b3c87" stroke-linecap="round" stroke-width="25" target-height="0" target-width="549.68" target-x="611.32" target-y="2888.11"></path><path d="M 194.00 4539.20 L 12.50 3069.77 C 12.50 3021.59 31.64 2975.38 65.71 2941.31 C 99.78 2907.25 145.99 2888.11 194.17 2888.11 L 262.61 2888.11" fill="none" group-id="1" node-id="211" stroke="#1b3c87" stroke-linecap="round" stroke-width="25" target-height="1651.0901" target-width="250.10999" target-x="12.5" target-y="2888.11"></path><path d="M 5852.52 2930.08 L 5472.30 2930.08" fill="none" group-id="1" node-id="213" stroke="#1b3c87" stroke-linecap="round" stroke-width="25" target-height="0" target-width="380.2202" target-x="5472.3" target-y="2930.08"></path><path d="M 5813.75 4539.49 L 6029.44 3296.37" fill="none" group-id="1" node-id="215" stroke="#1b3c87" stroke-linecap="round" stroke-width="25" target-height="1243.1201" target-width="215.68994" target-x="5813.75" target-y="3296.37"></path><path d="M 2209.93 1957.00 L 2209.75 2075.91 L 2455.65 1824.69 L 3133.53 1824.69 L 3133.53 1418.77 L 3036.33 1418.77" fill="none" group-id="1" node-id="217" stroke="#1b3c87" stroke-linecap="round" stroke-width="25" target-height="657.1399" target-width="923.78" target-x="2209.75" target-y="1418.77"></path><path d="M 2822.62 1418.77 L 2210.12 1418.77 L 2210.12 1756.51" fill="none" group-id="1" node-id="219" stroke="#1b3c87" stroke-linecap="round" stroke-width="25" target-height="337.74" target-width="612.5" target-x="2210.12" target-y="1418.77"></path><path d="M 2317.36 1541.73 L 2987.67 1541.73" fill="none" group-id="1" node-id="221" stroke="#1b3c87" stroke-linecap="round" stroke-width="25" target-height="0" target-width="670.3098" target-x="2317.36" target-y="1541.73"></path><path d="M 2317.36 1700.14 L 2551.36 1700.14" fill="none" group-id="1" node-id="223" stroke="#1b3c87" stroke-linecap="round" stroke-width="25" target-height="0" target-width="234" target-x="2317.36" target-y="1700.14"></path><path d="M 4164.82 876.46 L 4292.51 876.46 L 4292.51 1282.39 L 4292.88 1533.61 L 4047.00 1282.39 L 3369.10 1282.39 L 3369.10 1227.78" fill="none" group-id="1" node-id="225" stroke="#1b3c87" stroke-linecap="round" stroke-width="25" target-height="657.14996" target-width="923.7798" target-x="3369.1" target-y="876.46"></path><path d="M 3369.10 1070.90 L 3369.10 876.46 L 3880.24 876.46" fill="none" group-id="1" node-id="227" stroke="#1b3c87" stroke-linecap="round" stroke-width="25" target-height="194.44" target-width="511.1399" target-x="3369.1" target-y="876.46"></path><path d="M 4185.27 999.42 L 3515.00 999.42" fill="none" group-id="1" node-id="229" stroke="#1b3c87" stroke-linecap="round" stroke-width="25" target-height="0" target-width="670.27" target-x="3515" target-y="999.42"></path><path d="M 3753.24 1157.83 L 3519.24 1157.83" fill="none" group-id="1" node-id="231" stroke="#1b3c87" stroke-linecap="round" stroke-width="25" target-height="0" target-width="234" target-x="3519.24" target-y="1157.83"></path><path d="M 501.46 3584.11 L 502.15 3585.89 C 478.34 3639.26 264.96 4243.35 274.34 4293.41 C 283.77 4343.80 333.78 4432.62 370.56 4453.16 C 387.37 4462.57 555.74 4498.62 756.56 4541.74 L 1967.69 4541.74 C 1942.95 4478.74 1839.56 4426.79 1743.90 4426.60 C 1711.45 4425.53 1660.68 4427.75 1623.81 4469.89 C 1258.94 4301.49 850.22 4205.24 731.40 4174.30 L 718.40 4140.64 C 757.91 4065.07 877.02 3846.39 893.65 3812.33 C 830.35 3780.16 505.82 3586.72 503.00 3585.00 L 502.79 3584.40 C 502.79 3584.47 502.66 3584.68 502.63 3584.75 Z" fill="#ffffff" fill-rule="nonzero" group-id="1" node-id="233" stroke="none" target-height="957.6301" target-width="1693.6409" target-x="274.04904" target-y="3584.11"></path><path d="M 318.55 4037.81 C 282.55 4151.24 256.08 4244.64 259.55 4263.05 C 268.98 4313.43 318.96 4402.22 355.74 4422.78 C 376.08 4434.14 614.34 4484.87 868.48 4539.78" fill="none" group-id="1" node-id="235" stroke="#1b3c87" stroke-linecap="round" stroke-width="25" target-height="501.96973" target-width="609.2208" target-x="259.2592" target-y="4037.81"></path><path d="M 486.19 3553.78 C 476.81 3574.13 431.11 3700.89 383.19 3842.00" fill="none" group-id="1" node-id="237" stroke="#1b3c87" stroke-linecap="round" stroke-width="25" target-height="288.21997" target-width="103" target-x="383.19" target-y="3553.78"></path><path d="M 881.79 3779.93 C 857.16 3820.03 697.15 4122.30 693.12 4134.93 C 768.78 4157.04 1218.21 4255.79 1611.99 4437.54 C 1648.87 4395.39 1699.62 4393.18 1732.07 4394.26 C 1842.51 4394.47 1961.42 4451.60 1961.42 4539.26" fill="none" group-id="1" node-id="239" stroke="#1b3c87" stroke-linecap="round" stroke-width="25" target-height="759.32983" target-width="1268.3" target-x="693.12" target-y="3779.93"></path><path d="M 1059.75 3042.47 C 1332.12 3201.72 1046.67 3807.58 972.97 3826.85 C 828.14 3836.85 494.62 3627.75 462.52 3543.11 C 430.42 3458.47 791.00 2885.31 1059.75 3042.47 Z" fill="#46dbc9" fill-rule="nonzero" group-id="1" node-id="241" stroke="none" target-height="811.84937" target-width="714.6074" target-x="460.5331" target-y="3015.3315"></path><path d="M 1141.80 3393.71 C 1101.24 3587.39 996.58 3775.58 956.02 3786.19 C 811.19 3796.19 477.67 3587.08 445.57 3502.43 C 433.81 3471.43 474.78 3374.78 544.64 3272.54" fill="none" group-id="1" node-id="243" stroke="#1b3c87" stroke-linecap="round" stroke-width="25" target-height="513.9807" target-width="698.2297" target-x="443.57037" target-y="3272.54"></path><path d="M 713.00 3080.77 C 817.54 2991.01 937.27 2940.07 1042.84 3001.77 C 1084.84 3026.34 1113.61 3061.55 1131.91 3103.60" fill="none" group-id="1" node-id="245" stroke="#1b3c87" stroke-linecap="round" stroke-width="25" target-height="128.95654" target-width="418.91003" target-x="713" target-y="2974.6436"></path><path d="M 1220.14 2997.36 C 1259.80 2889.55 1253.67 2527.14 1249.74 2491.29 C 1245.00 2448.02 1212.42 2135.99 1290.65 2070.07 C 1368.88 2004.15 1489.12 1930.28 1560.10 1935.35 C 1631.08 1940.42 1842.32 2152.98 1842.32 2410.35 C 1842.32 2667.72 1608.32 2790.66 1553.43 2792.35 C 1545.93 2849.50 1546.51 3002.47 1546.51 3057.88 C 1524.00 3079.47 1277.67 3072.21 1220.14 2997.36 Z" fill="#ffffff" fill-rule="nonzero" group-id="1" node-id="247" stroke="none" target-height="1133.3597" target-width="622.17993" target-x="1220.14" target-y="1935.1156"></path><path d="M 1259.20 2265.68 C 1222.53 2263.44 1194.05 2296.52 1163.43 2328.09 C 1136.00 2125.00 1231.69 1767.87 1369.00 1743.44 C 1392.60 1744.37 1395.57 1775.65 1388.68 1803.18 C 1474.81 1724.62 1636.59 1680.97 1705.26 1680.39 C 1794.26 1680.39 1825.72 1750.58 1825.72 1774.67 C 1825.72 1835.67 1785.72 1926.81 1771.01 1950.41 C 1794.55 1937.89 1813.41 1933.32 1831.60 1933.32 C 1877.38 1933.32 1888.60 2004.32 1888.60 2025.48 C 1888.60 2099.32 1810.41 2174.48 1771.60 2174.48 C 1753.41 2174.48 1703.13 2146.15 1687.89 2125.01 C 1693.26 2140.71 1699.22 2145.11 1699.44 2169.24 C 1699.61 2189.15 1670.67 2200.08 1653.44 2200.08 C 1607.82 2200.08 1517.38 2111.08 1434.64 2111.08 C 1407.11 2111.08 1372.37 2150.53 1372.37 2172.77 C 1372.37 2195.01 1384.00 2300.00 1377.00 2303.65 C 1355.64 2320.48 1345.73 2270.42 1260.93 2264.98" fill="#eecb55" fill-rule="nonzero" group-id="1" node-id="249" stroke="none" target-height="647.7001" target-width="729.8677" target-x="1158.7323" target-y="1680.39"></path><path d="M 1777.92 2538.88 C 1725.07 2669.55 1617.04 2759.09 1492.35 2759.09 C 1429.21 2759.09 1370.35 2736.09 1320.75 2696.49" fill="none" group-id="1" node-id="251" stroke="#1b3c87" stroke-linecap="round" stroke-width="25" target-height="220.2102" target-width="457.17004" target-x="1320.75" target-y="2538.88"></path><path d="M 1765.89 2148.79 C 1797.40 2211.05 1812.44 2277.86 1812.44 2357.09 C 1812.45 2375.58 1811.44 2394.06 1809.44 2412.45" fill="none" group-id="1" node-id="253" stroke="#1b3c87" stroke-linecap="round" stroke-width="25" target-height="263.6599" target-width="46.549927" target-x="1765.89" target-y="2148.79"></path><path d="M 1517.00 3025.08 C 1513.55 2961.33 1515.50 2795.15 1524.11 2758.97" fill="none" group-id="1" node-id="255" stroke="#1b3c87" stroke-linecap="round" stroke-width="25" target-height="266.1101" target-width="8.713501" target-x="1515.3965" target-y="2758.97"></path><path d="M 1219.66 2795.48 C 1214.66 2860.61 1206.36 2921.59 1193.06 2963.63 C 1218.40 2993.35 1286.35 3016.08 1357.06 3026.72" fill="none" group-id="1" node-id="257" stroke="#1b3c87" stroke-linecap="round" stroke-width="25" target-height="231.23999" target-width="164" target-x="1193.06" target-y="2795.48"></path><path d="M 1219.48 2462.81 C 1223.37 2481.41 1227.26 2567.67 1225.48 2667.00" fill="none" group-id="1" node-id="259" stroke="#1b3c87" stroke-linecap="round" stroke-width="25" target-height="204.18994" target-width="6.4438477" target-x="1219.48" target-y="2462.81"></path><path d="M 1447.00 2278.20 C 1447.00 2258.97 1455.27 2243.37 1465.48 2243.37 C 1475.69 2243.37 1483.95 2258.97 1483.95 2278.20 C 1483.95 2297.43 1475.68 2313.03 1465.48 2313.03 C 1455.28 2313.03 1447.00 2297.44 1447.00 2278.20 Z" fill="#1b3c87" fill-rule="nonzero" group-id="1" node-id="261" stroke="none" target-height="69.65991" target-width="36.94995" target-x="1447" target-y="2243.37"></path><path d="M 1709.86 2292.13 C 1709.86 2272.90 1718.13 2257.31 1728.33 2257.31 C 1738.53 2257.31 1746.81 2272.90 1746.81 2292.13 C 1746.81 2311.36 1738.54 2326.96 1728.33 2326.96 C 1718.12 2326.96 1709.86 2311.37 1709.86 2292.13 Z" fill="#1b3c87" fill-rule="nonzero" group-id="1" node-id="263" stroke="none" target-height="69.6499" target-width="36.950073" target-x="1709.86" target-y="2257.31"></path><path d="M 1635.80 2370.21 C 1640.13 2400.90 1665.20 2452.33 1692.86 2472.21" fill="none" group-id="1" node-id="265" stroke="#1b3c87" stroke-linecap="round" stroke-width="25" target-height="102" target-width="57.059937" target-x="1635.8" target-y="2370.21"></path><path d="M 1620.68 2546.56 C 1601.68 2543.97 1541.14 2511.56 1529.04 2488.21 C 1506.56 2499.02 1495.32 2575.52 1541.14 2587.21" fill="none" group-id="1" node-id="267" stroke="#1b3c87" stroke-linecap="round" stroke-width="25" target-height="99" target-width="111.165405" target-x="1509.5146" target-y="2488.21"></path><path d="M 1766.32 2148.68 C 1761.57 2150.47 1756.56 2151.45 1751.49 2151.58 C 1714.87 2151.58 1653.38 2090.08 1653.38 2090.08 C 1667.20 2123.94 1675.49 2133.61 1675.49 2147.43 C 1675.49 2161.25 1658.21 2176.43 1632.66 2177.14 C 1570.42 2178.91 1501.66 2088.42 1414.30 2088.42 C 1391.53 2088.42 1347.04 2119.59 1347.04 2157.26 C 1347.04 2182.68 1355.04 2255.76 1355.04 2273.26 C 1355.04 2280.26 1351.04 2284.94 1343.58 2288.07" fill="none" group-id="1" node-id="269" stroke="#1b3c87" stroke-linecap="round" stroke-width="25" target-height="199.65015" target-width="422.74" target-x="1343.58" target-y="2088.42"></path><path d="M 1637.14 1663.91 C 1651.01 1662.02 1665.00 1661.05 1679.00 1661.00 C 1746.71 1661.00 1801.29 1706.60 1801.29 1757.73 C 1801.29 1808.86 1763.29 1909.73 1737.72 1933.92 C 1771.58 1918.72 1781.25 1913.19 1804.72 1913.19 C 1854.24 1913.19 1863.45 1965.70 1863.45 2005.08 C 1863.45 2074.21 1805.30 2134.95 1766.35 2148.66" fill="none" group-id="1" node-id="271" stroke="#1b3c87" stroke-linecap="round" stroke-width="25" target-height="487.6599" target-width="226.30994" target-x="1637.14" target-y="1661"></path><path d="M 1214.29 1864.09 C 1258.84 1770.65 1310.87 1721.09 1335.01 1721.09 C 1381.62 1721.09 1366.51 1770.22 1364.62 1785.97 C 1381.62 1768.54 1448.42 1723.59 1529.07 1692.64" fill="none" group-id="1" node-id="273" stroke="#1b3c87" stroke-linecap="round" stroke-width="25" target-height="171.44995" target-width="314.7799" target-x="1214.29" target-y="1692.64"></path><path d="M 1138.49 2198.11 C 1141.72 2103.93 1157.34 2022.54 1178.71 1954.98" fill="none" group-id="1" node-id="275" stroke="#1b3c87" stroke-linecap="round" stroke-width="25" target-height="243.13013" target-width="40.21997" target-x="1138.49" target-y="1954.98"></path><path d="M 1280.43 2473.85 C 1224.33 2482.90 1170.42 2448.25 1155.36 2393.46 C 1140.29 2338.67 1168.91 2281.33 1221.75 2260.43 C 1274.59 2239.54 1334.69 2261.79 1361.18 2312.06" fill="#ffffff" fill-rule="nonzero" group-id="1" node-id="277" stroke="none" target-height="222.65942" target-width="209.77429" target-x="1151.4058" target-y="2252.6199"></path><path d="M 1267.61 2463.17 C 1211.51 2472.22 1157.60 2437.57 1142.54 2382.78 C 1127.47 2327.99 1156.09 2270.65 1208.93 2249.75 C 1261.77 2228.86 1321.87 2251.11 1348.36 2301.38" fill="none" group-id="1" node-id="279" stroke="#1b3c87" stroke-linecap="round" stroke-width="25" target-height="222.65918" target-width="209.77441" target-x="1138.5856" target-y="2241.9404"></path><path d="M 5716.50 3629.83 C 5635.00 3671.68 5478.50 3696.10 5280.50 3703.02 C 5286.00 3819.27 5312.60 4185.81 5326.75 4386.96 C 5295.93 4431.91 5250.91 4490.62 5215.06 4536.41 L 5552.28 4536.41 C 5605.09 4451.41 5678.05 4329.51 5688.87 4300.46 C 5705.50 4255.81 5710.19 3823.60 5716.50 3629.83 Z" fill="#ffffff" fill-rule="nonzero" group-id="1" node-id="281" stroke="none" target-height="906.5801" target-width="501.43994" target-x="5215.06" target-y="3629.83"></path><path d="M 5700.08 3592.52 C 5698.58 3645.71 5683.60 4249.52 5670.87 4286.98 C 5658.14 4324.44 5554.87 4495.62 5521.87 4539.98" fill="none" group-id="1" node-id="283" stroke="#1b3c87" stroke-linecap="round" stroke-width="25" target-height="947.45996" target-width="178.20996" target-x="5521.87" target-y="3592.52"></path><path d="M 5357.89 2921.42 C 5631.59 2861.66 5819.48 3526.86 5779.43 3582.79 C 5739.38 3638.72 5246.09 3719.87 5202.05 3679.79 C 5158.01 3639.71 5128.68 2971.47 5357.89 2921.42 Z" fill="#46dbc9" fill-rule="nonzero" group-id="1" node-id="285" stroke="none" target-height="772.89624" target-width="613.18506" target-x="5171.583" target-y="2917.6174"></path><path d="M 5426.29 3652.29 C 5307.39 3669.82 5197.53 3676.19 5177.80 3658.23 C 5151.97 3634.71 5131.19 3394.97 5164.72 3190.72" fill="none" group-id="1" node-id="287" stroke="#1b3c87" stroke-linecap="round" stroke-width="25" target-height="478.20386" target-width="278.97607" target-x="5147.314" target-y="3190.72"></path><path d="M 5378.54 2896.40 C 5627.54 2912.29 5793.00 3508.40 5755.19 3561.23 C 5744.19 3576.62 5698.84 3593.92 5638.00 3610.08" fill="none" group-id="1" node-id="289" stroke="#1b3c87" stroke-linecap="round" stroke-width="25" target-height="713.6802" target-width="381.98828" target-x="5378.54" target-y="2896.4"></path><path d="M 5416.11 2322.78 C 5486.41 2253.12 5524.45 2101.69 5524.45 2018.89 C 5524.45 1848.66 5424.32 1778.79 5405.59 1778.79 C 5386.86 1778.79 5367.18 1818.18 5370.18 1845.73 C 5353.27 1822.27 5204.89 1677.13 4937.43 1677.13 C 4863.34 1677.13 4810.13 1713.02 4810.13 1772.04 C 4810.13 1798.88 4822.56 1840.77 4844.13 1855.17 C 4822.20 1856.80 4791.13 1872.48 4791.13 1916.04 C 4791.13 1965.80 4857.90 1989.34 4884.40 1989.34 C 4910.90 1989.34 4950.18 1961.85 4969.16 1936.00 C 4975.06 1964.47 4957.24 2010.86 5019.24 2011.27 C 5045.42 2011.44 5155.70 1955.63 5176.32 1936.98 C 5155.38 1972.98 5126.58 1989.51 5126.58 2030.25 C 5126.58 2068.36 5145.23 2095.05 5174.03 2095.05 C 5202.83 2095.05 5285.95 2055.78 5301.34 2038.05 C 5304.61 2063.91 5275.78 2244.34 5284.46 2293.53 C 5313.40 2295.70 5348.92 2258.85 5349.38 2289.06" fill="#e49d75" fill-rule="nonzero" group-id="1" node-id="291" stroke="none" target-height="645.65" target-width="733.3203" target-x="4791.13" target-y="1677.13"></path><path d="M 5097.28 1950.73 C 5124.41 1936.80 5148.55 1922.59 5157.13 1914.83 C 5136.19 1950.83 5107.39 1967.35 5107.39 2008.10 C 5107.39 2046.21 5126.04 2072.89 5154.84 2072.89 C 5183.64 2072.89 5266.76 2033.62 5282.14 2015.95 C 5285.42 2041.80 5256.59 2222.23 5265.27 2271.42 C 5294.21 2273.60 5329.73 2236.75 5330.19 2266.96" fill="none" group-id="1" node-id="293" stroke="#1b3c87" stroke-linecap="round" stroke-width="25" target-height="356.63757" target-width="232.91016" target-x="5097.28" target-y="1914.83"></path><path d="M 4997.33 1659.34 C 4971.06 1656.42 4944.66 1654.96 4918.23 1654.98 C 4844.14 1654.98 4790.92 1690.87 4790.92 1749.89 C 4790.92 1776.72 4803.36 1818.61 4824.92 1833.01 C 4802.99 1834.65 4771.92 1850.33 4771.92 1893.88 C 4771.92 1943.65 4838.68 1967.19 4865.19 1967.19 C 4891.70 1967.19 4930.97 1939.70 4949.95 1913.84 C 4955.35 1939.90 4940.88 1980.98 4985.95 1988.06" fill="none" group-id="1" node-id="295" stroke="#1b3c87" stroke-linecap="round" stroke-width="25" target-height="333.08008" target-width="225.41016" target-x="4771.92" target-y="1654.98"></path><path d="M 5495.66 2083.06 C 5502.00 2050.93 5505.25 2020.91 5505.25 1996.73 C 5505.25 1826.51 5405.12 1756.63 5386.39 1756.63 C 5367.66 1756.63 5348.00 1796.00 5351.00 1823.57 C 5339.64 1807.82 5268.93 1737.13 5142.64 1692.44" fill="none" group-id="1" node-id="297" stroke="#1b3c87" stroke-linecap="round" stroke-width="25" target-height="390.62012" target-width="362.60986" target-x="5142.64" target-y="1692.44"></path><path d="M 5396.91 2300.63 C 5421.18 2276.57 5441.61 2242.77 5457.96 2205.41" fill="none" group-id="1" node-id="299" stroke="#1b3c87" stroke-linecap="round" stroke-width="25" target-height="95.21997" target-width="61.049805" target-x="5396.91" target-y="2205.41"></path><path d="M 5312.19 2272.21 C 5339.97 2262.00 5371.17 2269.63 5391.10 2291.52 C 5411.03 2313.41 5415.72 2345.18 5402.97 2371.89 C 5390.21 2398.60 5362.54 2414.92 5333.00 2413.18 C 5303.45 2411.43 5277.90 2391.96 5268.38 2363.93" fill="none" group-id="1" node-id="301" stroke="#1b3c87" stroke-linecap="round" stroke-width="25" target-height="145.52881" target-width="141.69531" target-x="5268.38" target-y="2267.7593"></path><path d="M 77.50 4539.73 L 6108.40 4539.73" fill="none" group-id="1" node-id="303" stroke="#1b3c87" stroke-linecap="round" stroke-width="25" target-height="0" target-width="6030.9" target-x="77.5" target-y="4539.73"></path></g></svg>